<svg xmlns="http://www.w3.org/2000/svg" xmlns:xlink="http://www.w3.org/1999/xlink" width="500" zoomAndPan="magnify" viewBox="0 0 375 374.999991" height="500" preserveAspectRatio="xMidYMid meet" version="1.0"><defs><clipPath id="8b0f68a037"><path d="M 90.023438 102.960938 L 285 102.960938 L 285 271.710938 L 90.023438 271.710938 Z M 90.023438 102.960938 " clip-rule="nonzero"/></clipPath></defs><g clip-path="url(#8b0f68a037)"><path fill="#bf9c53" d="M 251.710938 271.695312 L 123.328125 271.695312 C 104.984375 271.695312 90.058594 256.804688 90.058594 238.496094 L 90.058594 162.40625 C 90.058594 144.097656 104.984375 129.203125 123.328125 129.203125 L 138.234375 129.203125 L 163.660156 103.832031 C 164.21875 103.273438 164.976562 102.960938 165.765625 102.960938 L 206.816406 102.960938 C 207.605469 102.960938 208.363281 103.273438 208.917969 103.832031 L 234.347656 129.203125 L 251.710938 129.203125 C 270.058594 129.203125 284.984375 144.097656 284.984375 162.40625 L 284.984375 238.496094 C 284.984375 256.804688 270.058594 271.695312 251.710938 271.695312 Z M 123.328125 135.140625 C 108.265625 135.140625 96.007812 147.371094 96.007812 162.40625 L 96.007812 238.496094 C 96.007812 253.527344 108.265625 265.757812 123.328125 265.757812 L 251.710938 265.757812 C 266.777344 265.757812 279.03125 253.527344 279.03125 238.496094 L 279.03125 162.40625 C 279.03125 147.371094 266.777344 135.140625 251.710938 135.140625 L 233.113281 135.140625 C 232.324219 135.140625 231.570312 134.828125 231.011719 134.273438 L 205.582031 108.898438 L 166.996094 108.898438 L 141.570312 134.273438 C 141.011719 134.828125 140.253906 135.140625 139.464844 135.140625 Z M 187.519531 246.148438 C 160.570312 246.148438 138.640625 224.265625 138.640625 197.371094 C 138.640625 170.476562 160.570312 148.597656 187.519531 148.597656 C 214.472656 148.597656 236.398438 170.476562 236.398438 197.371094 C 236.398438 224.265625 214.472656 246.148438 187.519531 246.148438 Z M 187.519531 154.535156 C 163.847656 154.535156 144.59375 173.75 144.59375 197.371094 C 144.59375 220.992188 163.847656 240.207031 187.519531 240.207031 C 211.191406 240.207031 230.449219 220.992188 230.449219 197.371094 C 230.449219 173.75 211.191406 154.535156 187.519531 154.535156 Z M 187.519531 154.535156 " fill-opacity="1" fill-rule="nonzero"/></g></svg>