<svg id="Layer_1" enable-background="new 0 0 512 512" height="512" viewBox="0 0 512 512" width="512" xmlns="http://www.w3.org/2000/svg"><path d="m464.866 160.667h-17.133v-17.134c0-26.049-21.056-47.133-47.134-47.133h-100.703c2.082-5.315 3.238-11.09 3.238-17.134 0-25.989-21.145-47.133-47.134-47.133s-47.133 21.144-47.133 47.133c0 6.044 1.156 11.819 3.238 17.134h-100.705c-26.093 0-47.133 21.251-47.133 47.133v17.134h-17.134c-25.989 0-47.133 21.144-47.133 47.133s21.144 47.134 47.133 47.134h17.133v177.8c0 3.979 1.581 7.794 4.394 10.606l32.133 32.133c2.813 2.813 6.628 4.394 10.606 4.394h289.2c3.979 0 7.793-1.58 10.606-4.394l32.134-32.133c2.813-2.813 4.394-6.628 4.394-10.606v-177.8h17.133c25.989 0 47.134-21.145 47.134-47.134s-21.145-47.133-47.134-47.133zm-400.599 64.267h-17.134c-9.447 0-17.133-7.687-17.133-17.134s7.686-17.133 17.133-17.133h17.133v34.267zm191.733-162.8c9.447 0 17.134 7.686 17.134 17.133s-7.687 17.133-17.134 17.133-17.133-7.687-17.133-17.134 7.686-17.132 17.133-17.132zm161.733 364.386-23.347 23.347h-276.773l-23.346-23.346v-235.854h323.467v235.853zm0-265.853h-323.466v-17.134c0-9.392 7.63-17.133 17.133-17.133h289.2c9.469 0 17.134 7.682 17.134 17.133v17.134zm47.133 64.267h-17.133v-34.267h17.133c9.447 0 17.134 7.686 17.134 17.133s-7.687 17.134-17.134 17.134z"/></svg>